<svg viewBox="0 0 40 40" xmlns="http://www.w3.org/2000/svg" xmlns:xlink="http://www.w3.org/1999/xlink" width="40.000000" height="40.000000" fill="none">
	<rect id="Linear / School / Bookmark" width="40.000000" height="40.000000" x="0.000000" y="0.000000" />
	<path id="Vector" d="M35 26.8182C35 31.9791 35 34.5596 33.7765 35.6872C33.193 36.2249 32.4564 36.5628 31.6718 36.6526C30.0266 36.8408 28.1054 35.1416 24.2631 31.7431C22.5646 30.2408 21.7154 29.4897 20.7329 29.2918C20.249 29.1943 19.751 29.1943 19.2671 29.2918C18.2846 29.4897 17.4354 30.2408 15.7369 31.7431C11.8946 35.1416 9.97337 36.8408 8.32819 36.6526C7.54358 36.5628 6.80702 36.2249 6.22351 35.6872C5 34.5596 5 31.9791 5 26.8182L5 18.4959C5 11.3482 5 7.77435 7.1967 5.55384C9.3934 3.33334 12.9289 3.33334 20 3.33334C27.0711 3.33334 30.6066 3.33334 32.8033 5.55384C35 7.77435 35 11.3482 35 18.4959L35 26.8182Z" fill-rule="nonzero" stroke="rgb(123,110,246)" stroke-width="3.000000" />
	<path id="Vector" d="M25 10L15 10" stroke="rgb(123,110,246)" stroke-linecap="round" stroke-width="3.000000" />
</svg>
